<svg width="360" height="188" viewBox="0 0 360 188" fill="none" xmlns="http://www.w3.org/2000/svg">
<path d="M0 95.6407L42.6387 65.8988V80.0366L10.3926 101.242V101.509L42.6387 122.714V136.852L0 107.116V95.6407Z" fill="#FFAFCC"/>
<path d="M49.2187 142.192L68.2285 45.4912H77.2012L58.2031 142.192H49.2187Z" fill="#CDB4DB"/>
<path d="M125 107.509L82.3613 136.855V122.717L115.318 101.512V101.245L82.3613 80.0366V65.8988L125 95.2448V107.509Z" fill="#A2D2FF"/>
<path d="M179.592 100.936C177.304 100.936 175.632 100.672 174.576 100.144C173.579 99.5573 172.933 98.9707 172.64 98.384C172.405 97.7973 172.288 97.416 172.288 97.24C172.288 97.064 172.171 96.712 171.936 96.184C171.76 95.656 171.437 95.1573 170.968 94.688C170.499 94.16 169.883 93.896 169.12 93.896C168.357 93.8373 167.624 94.3653 166.92 95.48C166.216 96.5947 165.629 97.944 165.16 99.528C164.691 101.053 164.397 102.52 164.28 103.928C164.221 105.336 164.368 106.773 164.72 108.24C165.131 109.707 165.717 110.939 166.48 111.936C167.243 112.875 168.152 113.373 169.208 113.432C170.792 113.491 171.76 113.256 172.112 112.728C172.464 112.141 172.64 111.848 172.64 111.848C172.64 111.848 172.699 111.672 172.816 111.32C172.933 110.909 173.256 110.469 173.784 110C174.371 109.531 175.28 109.149 176.512 108.856C177.744 108.504 179.504 108.357 181.792 108.416C184.08 108.475 185.635 108.768 186.456 109.296C187.277 109.824 187.688 110.411 187.688 111.056C187.747 111.701 187.629 112.259 187.336 112.728C187.043 113.197 186.896 113.432 186.896 113.432C186.896 113.432 186.485 113.813 185.664 114.576C184.843 115.339 183.64 116.219 182.056 117.216C180.531 118.213 178.653 119.093 176.424 119.856C174.195 120.619 171.643 121 168.768 121C163.077 121 158.56 119.445 155.216 116.336C151.931 113.227 150.171 108.827 149.936 103.136C149.819 100.32 150.317 97.7973 151.432 95.568C152.547 93.3387 154.043 91.4613 155.92 89.936C157.797 88.352 159.88 87.1493 162.168 86.328C164.456 85.448 166.685 84.9493 168.856 84.832C171.085 84.7147 173.197 85.0373 175.192 85.8C177.187 86.504 178.976 87.472 180.56 88.704C182.203 89.936 183.523 91.2267 184.52 92.576C185.517 93.9253 186.075 95.1867 186.192 96.36C186.309 97.4747 186.045 98.3547 185.4 99C184.813 99.6453 184.051 100.115 183.112 100.408C182.232 100.643 181.44 100.789 180.736 100.848C180.032 100.907 179.651 100.936 179.592 100.936ZM200.066 115.192C199.244 112.728 198.394 110.205 197.514 107.624C196.634 104.984 195.783 102.491 194.962 100.144C194.199 97.7387 193.524 95.656 192.938 93.896C192.351 92.136 191.94 90.904 191.706 90.2C191.236 88.7333 191.5 87.5013 192.498 86.504C193.495 85.5067 195.431 85.008 198.306 85.008C200.242 85.008 201.679 85.3013 202.618 85.888C203.556 86.416 204.143 86.9733 204.378 87.56C204.671 88.088 204.818 88.352 204.818 88.352L208.514 103.488L209.13 108.592L210.538 101.464C210.538 101.464 210.684 101.053 210.978 100.232C211.271 99.352 211.652 98.296 212.122 97.064C212.591 95.7733 213.06 94.4827 213.53 93.192C213.999 91.8427 214.41 90.6987 214.762 89.76C215.466 87.8827 216.404 86.6507 217.578 86.064C218.81 85.4187 220.951 85.1547 224.002 85.272C225.527 85.3307 226.642 85.624 227.346 86.152C228.05 86.6213 228.46 87.1787 228.578 87.824C228.754 88.4107 228.783 88.9387 228.666 89.408C228.607 89.8773 228.578 90.112 228.578 90.112L216.17 116.512C216.17 116.512 215.935 116.893 215.466 117.656C214.996 118.36 214.204 119.093 213.09 119.856C212.034 120.619 210.508 121 208.514 121C206.871 121 205.492 120.707 204.378 120.12C203.322 119.533 202.471 118.859 201.826 118.096C201.18 117.333 200.711 116.659 200.418 116.072C200.183 115.485 200.066 115.192 200.066 115.192ZM240.782 121C239.139 121 237.526 120.736 235.942 120.208C234.416 119.68 233.566 118.712 233.39 117.304C233.214 116.541 233.067 115.808 232.95 115.104C232.832 114.4 233.067 113.755 233.654 113.168C234.475 112.288 235.678 111.701 237.262 111.408C238.846 111.115 240.459 111.085 242.102 111.32C243.744 111.555 245.064 111.995 246.062 112.64C246.766 113.109 247.235 113.725 247.47 114.488C247.704 115.192 247.851 115.925 247.91 116.688C248.086 117.744 247.792 118.595 247.03 119.24C246.267 119.885 245.299 120.355 244.126 120.648C242.952 120.883 241.838 121 240.782 121ZM261.54 121C261.54 121 261.159 121 260.396 121C259.692 121.059 258.841 120.971 257.844 120.736C256.905 120.501 256.025 120.032 255.204 119.328C254.441 118.565 253.972 117.421 253.796 115.896C253.679 114.664 253.532 113.021 253.356 110.968C253.239 108.915 253.092 106.744 252.916 104.456C252.74 102.109 252.593 99.9093 252.476 97.856C252.359 95.8027 252.241 94.1307 252.124 92.84C252.065 91.4907 252.036 90.816 252.036 90.816C252.036 90.816 252.007 90.552 251.948 90.024C251.948 89.496 252.065 88.88 252.3 88.176C252.593 87.4133 253.151 86.7387 253.972 86.152C254.793 85.5653 256.084 85.2427 257.844 85.184C260.191 85.0667 261.921 85.2133 263.036 85.624C264.151 86.0347 264.884 86.4747 265.236 86.944C265.647 87.4133 265.852 87.648 265.852 87.648C265.852 87.648 266.292 87.4133 267.172 86.944C268.111 86.4747 269.372 86.0347 270.956 85.624C272.54 85.1547 274.3 84.92 276.236 84.92C278.465 84.92 280.284 85.1547 281.692 85.624C283.159 86.0933 284.244 86.5627 284.948 87.032C285.652 87.5013 286.004 87.736 286.004 87.736C287.705 86.68 289.436 86.064 291.196 85.888C293.015 85.712 295.068 85.624 297.356 85.624C297.356 85.624 297.943 85.712 299.116 85.888C300.289 86.0053 301.756 86.3573 303.516 86.944C305.276 87.5307 307.036 88.4987 308.796 89.848C310.615 91.1387 312.14 92.9573 313.372 95.304C314.604 97.592 315.249 100.555 315.308 104.192C315.425 108.768 315.308 112.229 314.956 114.576C314.604 116.923 314.105 118.536 313.46 119.416C312.815 120.296 312.023 120.795 311.084 120.912C310.145 120.971 309.119 121 308.004 121C305.775 121 303.868 120.531 302.284 119.592C300.759 118.595 300.172 117.099 300.524 115.104C300.641 114.341 300.729 113.109 300.788 111.408C300.905 109.707 300.905 107.859 300.788 105.864C300.671 103.811 300.407 101.875 299.996 100.056C299.585 98.1787 298.969 96.6533 298.148 95.48C297.327 94.248 296.241 93.6613 294.892 93.72C293.895 93.72 293.103 94.1307 292.516 94.952C291.988 95.7147 291.607 96.4773 291.372 97.24C291.137 98.0027 291.02 98.384 291.02 98.384L292.164 115.104C292.164 115.104 292.164 115.397 292.164 115.984C292.223 116.571 292.105 117.275 291.812 118.096C291.519 118.859 290.873 119.533 289.876 120.12C288.879 120.707 287.324 121 285.212 121C283.1 121 281.487 120.736 280.372 120.208C279.316 119.68 278.583 119.064 278.172 118.36C277.761 117.656 277.527 117.04 277.468 116.512C277.409 115.984 277.38 115.691 277.38 115.632C277.38 115.573 277.409 114.987 277.468 113.872C277.527 112.699 277.556 111.232 277.556 109.472C277.615 107.712 277.556 105.864 277.38 103.928C277.204 101.933 276.881 100.085 276.412 98.384C276.001 96.624 275.356 95.2747 274.476 94.336C273.655 93.3387 272.54 92.928 271.132 93.104C269.783 93.28 268.815 93.72 268.228 94.424C267.641 95.0693 267.26 95.6853 267.084 96.272C266.967 96.8587 266.908 97.152 266.908 97.152L268.316 115.72C268.316 115.72 268.316 115.984 268.316 116.512C268.375 117.04 268.228 117.656 267.876 118.36C267.583 119.064 266.937 119.68 265.94 120.208C265.001 120.736 263.535 121 261.54 121ZM348.797 63.624C348.797 63.624 349.149 63.6827 349.853 63.8C350.615 63.8587 351.466 64.0347 352.405 64.328C353.343 64.5627 354.194 64.9733 354.957 65.56C355.778 66.088 356.218 66.8507 356.277 67.848C356.335 68.4933 356.423 69.9013 356.541 72.072C356.658 74.184 356.775 76.7067 356.893 79.64C357.069 82.5733 357.215 85.624 357.333 88.792C357.509 91.9013 357.655 94.8347 357.773 97.592C357.89 100.291 357.978 102.491 358.037 104.192C358.154 105.893 358.213 106.744 358.213 106.744C358.213 106.744 358.183 107.096 358.125 107.8C358.125 108.504 357.949 109.384 357.597 110.44C357.303 111.496 356.746 112.523 355.925 113.52C354.165 115.691 351.935 117.48 349.237 118.888C346.538 120.296 342.842 121 338.149 121C335.039 121 332.047 120.413 329.173 119.24C326.357 118.067 324.039 116.219 322.221 113.696C320.461 111.115 319.61 107.771 319.669 103.664C319.727 100.555 320.402 97.8267 321.693 95.48C323.042 93.1333 324.802 91.1973 326.973 89.672C329.143 88.088 331.549 86.9147 334.189 86.152C336.887 85.3893 339.586 85.008 342.285 85.008L341.669 69.784C341.669 69.784 341.61 69.52 341.493 68.992C341.375 68.4053 341.434 67.7307 341.669 66.968C341.962 66.2053 342.637 65.5013 343.693 64.856C344.749 64.2107 346.45 63.8 348.797 63.624ZM342.549 92.664C341.199 92.5467 339.909 93.0453 338.677 94.16C337.445 95.2747 336.418 96.712 335.597 98.472C334.834 100.173 334.453 101.875 334.453 103.576C334.453 106.099 334.863 108.269 335.685 110.088C336.565 111.907 337.709 112.816 339.117 112.816C340.055 112.816 340.847 112.435 341.493 111.672C342.138 110.909 342.637 110.147 342.989 109.384C343.341 108.563 343.517 108.152 343.517 108.152L342.549 92.664Z" fill="url(#paint0_linear_6_23)"/>
<defs>
<linearGradient id="paint0_linear_6_23" x1="217.382" y1="95.5" x2="286.332" y2="132.403" gradientUnits="userSpaceOnUse">
<stop stop-color="#FFAFCC"/>
<stop offset="0.276042" stop-color="#BDE0FE"/>
<stop offset="0.510417" stop-color="#A2D2FF"/>
<stop offset="0.875" stop-color="#CDB4DB"/>
</linearGradient>
</defs>
</svg>
