<svg width="158" height="79" viewBox="0 0 158 79" fill="none" xmlns="http://www.w3.org/2000/svg">
<path d="M24.0552 72.7612L24.7695 54.9023C17.1247 53.8245 11.2344 51.0674 7.09863 46.6309C2.98796 42.1943 0.932617 36.1411 0.932617 28.4712C0.932617 20.3 3.61458 14.0212 8.97852 9.63477C14.8939 4.74707 23.6792 2.30322 35.3345 2.30322C54.008 2.30322 64.4476 7.66715 66.6533 18.395C66.9541 19.9491 67.6183 21.1396 68.646 21.9668L68.0068 22.7939C66.8037 21.8916 65.5003 21.5031 64.0967 21.6284L49.6216 22.5308C47.9422 22.6561 46.8519 23.2702 46.3506 24.373L45.1099 23.7715C45.3605 23.2201 45.4858 22.7438 45.4858 22.3428C45.4858 21.0394 45.0472 19.9115 44.1699 18.959C43.3177 17.9814 42.2274 17.2546 40.8989 16.7783C38.3172 15.8509 35.8107 15.3872 33.3794 15.3872C29.6698 15.3872 26.7747 16.653 24.6943 19.1846C22.639 21.6911 21.6113 24.9621 21.6113 28.9976C21.6113 33.008 22.7769 36.2915 25.1079 38.8481C27.464 41.3797 30.7601 42.6455 34.9961 42.6455C36.3496 42.6455 37.8535 42.3197 39.5078 41.668C41.1872 40.9912 42.666 40.0262 43.9443 38.7729C45.2477 37.5197 45.8994 36.1912 45.8994 34.7876C45.8994 34.3866 45.7616 33.8853 45.4858 33.2837L46.7266 32.6445C47.3281 33.7725 48.2931 34.3866 49.6216 34.4868C50.9751 34.5871 52.7171 34.7249 54.8477 34.9004C59.5348 35.3265 62.7933 35.5396 64.623 35.5396C66.4528 35.5396 67.894 35.151 68.9468 34.374L69.5483 35.1636C68.6209 35.8654 67.9191 37.1688 67.4429 39.0737C66.9917 40.9536 66.1019 42.7708 64.7734 44.5254C63.445 46.2549 61.9411 47.6961 60.2617 48.8491C58.6074 49.9771 56.6774 50.9671 54.4717 51.8193C50.6868 53.3232 46.5386 54.3885 42.0269 55.0151C42.0269 57.3211 42.3276 60.7425 42.9292 65.2793C43.5308 69.8161 43.8315 72.8364 43.8315 74.3403C43.8315 75.8442 43.6436 76.897 43.2676 77.4985C42.9167 78.1001 42.3903 78.4009 41.6885 78.4009C40.9867 78.4009 40.4478 78.1001 40.0718 77.4985C39.6958 76.897 39.5078 75.932 39.5078 74.6035C39.5078 73.3001 39.7083 70.756 40.1094 66.9712C40.5355 63.1864 40.7485 60.6548 40.7485 59.3765C40.7485 58.0981 40.6859 57.2334 40.5605 56.7822C40.4352 56.3311 40.2848 55.9801 40.1094 55.7295C39.9339 55.5039 39.6331 55.3285 39.207 55.2031C38.2295 54.9525 37.0514 54.8898 35.6729 55.0151C32.9157 55.2407 31.5371 55.7044 31.5371 56.4062L32.4395 66.6328C32.4395 68.262 31.9632 69.0767 31.0107 69.0767C30.0583 69.0767 29.582 68.3874 29.582 67.0088C29.582 65.6302 29.745 63.8005 30.0708 61.5195C30.4217 59.2386 30.5972 57.5968 30.5972 56.5942C30.5972 55.6167 30.2713 55.1279 29.6196 55.1279C28.3413 55.1279 27.4766 55.2658 27.0254 55.5415C26.5993 55.8172 26.3862 56.0679 26.3862 56.2935L26.7998 72.5732C26.7998 72.9993 26.6619 73.3753 26.3862 73.7012C26.1105 74.0521 25.7721 74.2275 25.3711 74.2275C24.9701 74.2275 24.6442 74.0771 24.3936 73.7764C24.168 73.5007 24.0552 73.1623 24.0552 72.7612ZM94.7764 63.8506C94.7764 64.6777 94.4004 65.0913 93.6484 65.0913C93.2725 65.0913 92.9717 64.9535 92.7461 64.6777C92.5205 64.4271 92.4077 63.9383 92.4077 63.2114C92.4077 62.4845 92.5832 61.0558 92.9341 58.9253C93.285 56.8198 93.4604 54.9775 93.4604 53.3984C93.4604 51.7943 93.0469 50.0522 92.2197 48.1724L73.5713 5.27344C73.0199 3.91992 72.13 2.82959 70.9019 2.00244L71.3906 1.28809C72.5687 2.0651 73.9222 2.45361 75.4512 2.45361H88.5728C90.1017 2.45361 91.2046 1.92725 91.8813 0.874512L92.9717 1.55127C92.5456 2.1027 92.3325 2.6416 92.3325 3.16797C92.3325 3.66927 92.6709 4.82227 93.3477 6.62695C94.0495 8.43164 94.9644 10.7 96.0923 13.4321C97.2202 16.1392 98.2729 18.6582 99.2505 20.9893C100.253 23.3203 101.306 25.7642 102.409 28.3208C103.512 30.8774 104.126 32.3062 104.251 32.6069C104.376 32.3062 104.99 30.8774 106.093 28.3208C107.196 25.7642 108.236 23.3203 109.214 20.9893C110.216 18.6582 111.282 16.1266 112.41 13.3945C114.916 7.35384 116.169 3.99512 116.169 3.31836C116.169 2.6416 115.969 2.05257 115.568 1.55127L116.621 0.874512C117.297 1.92725 118.4 2.45361 119.929 2.45361H133.088C134.642 2.45361 136.008 2.0651 137.187 1.28809L137.638 2.00244C136.41 2.82959 135.52 3.91992 134.968 5.27344L116.057 50.0146C115.731 50.7666 115.568 52.5713 115.568 55.4287C115.568 58.2861 115.856 61.4569 116.433 64.9409C117.034 68.45 117.335 71.0568 117.335 72.7612C117.335 75.1925 116.458 76.4082 114.703 76.4082C112.974 76.4082 112.109 75.2051 112.109 72.7988C112.109 71.1696 112.422 68.7508 113.049 65.5425C113.675 62.3592 113.989 59.4391 113.989 56.7822C113.989 54.1253 113.663 52.7969 113.011 52.7969H94.814C94.4129 52.7969 94.2124 53.7243 94.2124 55.5791L94.7764 63.8506ZM152.94 54H147.526C145.32 54 144.004 53.9123 143.578 53.7368C143.152 53.5614 142.939 52.9222 142.939 51.8193V43.0215C142.939 41.9186 143.139 41.292 143.541 41.1416C143.967 40.9661 145.295 40.8784 147.526 40.8784H152.94C155.171 40.8784 156.487 40.9661 156.888 41.1416C157.314 41.292 157.527 41.9186 157.527 43.0215V51.8193C157.527 52.9222 157.314 53.5614 156.888 53.7368C156.462 53.9123 155.146 54 152.94 54Z" fill="url(#paint0_linear_1_16)"/>
<defs>
<linearGradient id="paint0_linear_1_16" x1="52" y1="37" x2="114.159" y2="57.6754" gradientUnits="userSpaceOnUse">
<stop stop-color="#FFC8DD"/>
<stop offset="0.276042" stop-color="#BDE0FE"/>
<stop offset="0.510417" stop-color="#A2D2FF"/>
<stop offset="0.875" stop-color="#CDB4DB"/>
</linearGradient>
</defs>
</svg>
